<svg width="145" height="143" viewBox="0 0 145 143" fill="none" xmlns="http://www.w3.org/2000/svg">
<path fill-rule="evenodd" clip-rule="evenodd" d="M71.3771 111.212C67.5323 108.335 63.4196 105.748 59.0824 103.478H59.6914C62.0394 102.608 64.2114 101.398 66.1128 99.9027C68.0615 98.4131 69.7464 96.6673 71.1064 94.7308C73.61 91.0188 74.9362 86.7884 74.9633 82.4745C78.4909 82.8639 82.0696 82.303 85.228 80.8658C91.2104 77.7248 96.3324 73.4606 100.229 68.3771C103.63 63.8705 107.521 59.6659 111.847 55.8229C117.531 53.1417 123.479 50.9132 129.616 49.1615C131.294 48.3909 132.848 47.4574 134.278 46.3611C136.924 44.2161 139.042 41.5944 140.49 38.6927C141.924 35.8446 142.655 32.7642 142.655 29.648C142.655 29.1423 142.427 28.6573 142.021 28.2997C141.615 27.9422 141.064 27.7413 140.49 27.7413C139.915 27.7413 139.365 27.9422 138.959 28.2997C138.552 28.6573 138.324 29.1423 138.324 29.648C138.189 32.2637 137.485 34.8317 136.234 37.2031C134.948 39.4792 133.162 41.505 130.962 43.1495C129.833 43.9691 128.584 44.6505 127.248 45.1754C120.74 46.8693 114.412 49.0583 108.335 51.7176C102.185 55.531 94.8228 67.0067 86.04 73.0782C83.9891 74.9049 81.2516 76.0097 78.3414 76.1853C75.4311 76.3608 72.5481 75.595 70.2335 74.0316C66.309 71.7078 68.1359 68.4903 70.2335 64.9868C74.4896 58.2599 81.4456 50.5855 81.8515 43.507C82.0524 41.4842 81.7169 39.448 80.8715 37.5589C80.026 35.6698 78.6938 33.9794 76.9797 32.6212C68.3389 25.4235 60.7064 25.781 54.894 29.648C51.4048 32.468 48.605 35.8847 46.6656 39.6895C44.7263 43.4943 43.688 47.6072 43.6143 51.7772C42.8023 51.7772 42.058 51.4793 41.2461 51.4197C38.1493 51.3041 35.0507 51.6054 32.0572 52.3135C31.7953 48.6901 32.2067 45.0534 33.2752 41.5467C34.7571 35.4645 36.7913 29.497 39.3582 23.7015C40.6905 19.8216 43.0981 16.2946 46.3642 13.4383C49.6304 10.5821 53.6523 8.48631 58.0675 7.33996C63.5452 6.27728 69.1901 6.05555 74.7535 6.68454C83.8747 7.39954 93.3342 9.00829 102.117 9.06788H110.968C117.727 8.71038 124.48 8.11454 131.233 7.75704C131.807 7.75704 132.358 7.55616 132.764 7.19859C133.17 6.84102 133.398 6.35606 133.398 5.85038C133.398 5.3447 133.17 4.85973 132.764 4.50216C132.358 4.14459 131.807 3.94371 131.233 3.94371L113.735 4.06288H102.252C93.6725 3.65175 84.4837 1.51271 75.2272 0.565336C68.8755 -0.339043 62.3854 -0.156973 56.112 1.10159C50.7437 2.54582 45.8689 5.1458 41.9288 8.66633C37.9887 12.1869 35.1075 16.5169 33.5458 21.2646C31.3678 27.5746 29.7191 34.017 28.6131 40.5398C27.6627 44.7963 27.571 49.167 28.3424 53.4515C24.8559 54.656 21.7005 56.5003 19.0859 58.8617C13.5862 64.0692 10.316 70.7997 9.8362 77.8985C9.3566 82.4157 10.0841 86.9691 11.9604 91.1945C13.8368 95.4198 16.81 99.1999 20.6422 102.232C17.2861 104.211 14.2006 106.522 11.4534 109.132C9.72604 110.874 8.20897 112.769 6.92663 114.787C5.6625 116.783 4.59839 118.872 3.7464 121.031C1.86877 125.99 0.625076 131.118 0.038381 136.32C-0.014934 136.566 -0.0126837 136.819 0.0450042 137.064C0.102692 137.31 0.214687 137.543 0.374595 137.75C0.534504 137.957 0.739193 138.134 0.976977 138.272C1.21476 138.409 1.48098 138.504 1.76044 138.551C2.0399 138.598 2.32713 138.596 2.60572 138.546C2.8843 138.495 3.1488 138.396 3.38411 138.255C3.61942 138.115 3.82092 137.934 3.97713 137.725C4.13333 137.516 4.24116 137.281 4.29448 137.035C5.75603 132.328 7.698 127.746 10.1001 123.349C11.1151 121.502 12.1977 119.78 13.348 117.998C14.4983 116.217 15.7162 114.602 16.9951 112.88C19.2772 109.89 21.8539 107.083 24.6953 104.491C28.1493 106.175 31.9718 107.191 35.9073 107.47C36.2021 107.521 36.5056 107.517 36.7988 107.46C37.0919 107.402 37.3682 107.291 37.61 107.134C37.8518 106.977 38.0539 106.778 38.2035 106.548C38.353 106.319 38.4467 106.064 38.4786 105.801C38.5357 105.289 38.3622 104.777 37.9952 104.376C37.6283 103.975 37.0973 103.716 36.5163 103.656C24.6953 102.107 15.5742 92.1747 17.1981 78.256C17.4805 74.9137 18.5298 71.6566 20.2825 68.6815C22.0352 65.7064 24.4548 63.0753 27.3951 60.9471C31.3979 58.2211 36.3213 56.7529 41.3814 56.7762C45.5605 56.8738 49.7112 57.4139 53.7437 58.385C57.2328 59.5213 60.4267 61.2639 63.1355 63.5092C62.4122 64.7444 61.8232 66.0372 61.3763 67.3702C60.4823 69.5423 60.48 71.9215 61.3699 74.0949C62.2598 76.2684 63.9857 78.0989 66.2481 79.269C67.5969 80.0912 69.0359 80.7665 70.5651 81.2948C69.6178 86.7765 66.3022 91.7219 61.3154 95.0943C59.7998 96.2067 58.1941 97.2203 56.5112 98.1271C52.3479 100.313 47.7737 101.824 43.0053 102.59C42.7563 102.605 42.5131 102.663 42.2898 102.761C42.0664 102.859 41.8673 102.996 41.7038 103.162C41.5403 103.328 41.4157 103.521 41.3372 103.729C41.2586 103.938 41.2276 104.158 41.2461 104.377C41.2554 104.601 41.3159 104.821 41.4238 105.024C41.5318 105.227 41.6851 105.409 41.8746 105.558C42.064 105.708 42.2858 105.822 42.5265 105.895C42.7673 105.967 43.0222 105.996 43.276 105.98C46.8329 106.101 50.3933 105.841 53.879 105.206C58.381 108.614 62.6596 112.223 66.715 116.032C69.6832 118.646 72.4078 121.442 74.8889 124.421C79.3311 128.967 81.7349 134.786 81.6485 140.783C81.6005 141.034 81.6099 141.29 81.6762 141.538C81.7425 141.785 81.8643 142.019 82.0345 142.224C82.2048 142.429 82.42 142.603 82.6674 142.734C82.9149 142.865 83.1896 142.951 83.4755 142.987C84.0571 143.054 84.645 142.916 85.1122 142.604C85.5793 142.292 85.8883 141.83 85.9723 141.319C86.7039 137.782 86.6326 134.152 85.7628 130.639C84.8929 127.126 83.2416 123.8 80.9042 120.852C78.2548 117.263 75.048 114.018 71.3771 111.212ZM55.3068 54.3929C52.8271 53.4564 50.2476 52.7398 47.6065 52.2539C47.7133 48.6341 48.6821 45.0745 50.4503 41.8054C52.2186 38.5363 54.7468 35.6307 57.8712 33.2766C61.9988 30.8932 67.0601 31.3699 72.6695 36.4941C78.2789 41.6063 75.2407 45.5925 72.1282 50.3532C69.8952 53.7435 67.1954 57.1933 64.9016 60.4049C62.144 57.9022 58.89 55.8647 55.3 54.3929" fill="black"/>
<path fill-rule="evenodd" clip-rule="evenodd" d="M141.64 122.985C140.887 121.117 139.959 119.307 138.866 117.575C137.77 115.825 136.456 114.188 134.948 112.695C132.801 110.528 130.35 108.61 127.654 106.987C129.03 106.101 130.27 105.088 131.375 103.948C134.074 100.666 135.822 96.8532 136.468 92.8412C137.114 88.8291 136.639 84.7389 135.083 80.9252C133.349 77.3115 130.701 74.0938 127.342 71.5167C123.983 68.9396 120 67.0711 115.697 66.0532C115.462 65.9776 115.212 65.9439 114.962 65.954C114.711 65.9641 114.466 66.0178 114.239 66.112C114.013 66.2062 113.81 66.339 113.642 66.5028C113.474 66.6666 113.345 66.8581 113.261 67.0661C113.165 67.2768 113.118 67.5026 113.124 67.7297C113.13 67.9568 113.189 68.1804 113.297 68.3868C113.405 68.5932 113.559 68.778 113.751 68.93C113.942 69.082 114.167 69.198 114.412 69.2707C117.932 70.4372 121.102 72.2981 123.679 74.7108C126.256 77.1235 128.171 80.0238 129.278 83.1894C129.988 85.5548 130.191 88.0156 129.887 90.4466C129.409 94.1454 127.847 97.6711 125.353 100.677C123.641 102.424 121.523 103.826 119.141 104.788C115.488 106.635 111.333 107.601 107.117 107.577C103.463 107.36 99.9052 106.45 96.6867 104.911C93.4683 103.372 90.6652 101.238 88.4691 98.6572C88.1106 98.2637 87.5894 98.0113 87.02 97.9555C86.4505 97.8997 85.8791 98.0449 85.431 98.3593C85.0259 98.7263 84.7993 99.2179 84.7993 99.7297C84.7993 100.241 85.0259 100.733 85.431 101.1C87.8415 104.356 91.0319 107.107 94.7782 109.162C98.5246 111.216 102.736 112.524 107.117 112.993C112.869 113.35 118.62 112.236 123.668 109.775C125.901 111.94 127.929 114.244 129.751 116.687C130.834 118.109 131.847 119.535 132.789 120.965C133.804 122.455 134.684 123.944 135.564 125.488C137.661 129.321 139.371 133.287 140.693 137.386C140.749 137.633 140.861 137.868 141.021 138.077C141.181 138.286 141.386 138.465 141.625 138.603C141.864 138.742 142.132 138.837 142.414 138.884C142.695 138.931 142.984 138.928 143.264 138.876C143.685 138.799 144.071 138.614 144.373 138.343C144.674 138.073 144.877 137.729 144.955 137.357C145.015 137.111 145.015 136.857 144.955 136.612C144.459 131.971 143.347 127.397 141.64 122.985Z" fill="black"/>
</svg>
